<svg width="80" height="80" viewBox="0 0 80 80" fill="none" xmlns="http://www.w3.org/2000/svg">
<g clip-path="url(#clip0_172_626)">
<path d="M2.50978 64.8846L8.95982 65.1477C9.65729 62.2598 12.3137 60.173 15.403 60.2991C18.4921 60.4251 20.9894 62.7221 21.4752 65.6583L27.9253 65.9214C27.5188 59.4474 22.2568 54.1893 15.6348 53.9191C9.01256 53.6489 3.38475 58.4628 2.50978 64.8846Z" fill="black"/>
<path d="M2.41717 67.4366C2.82362 73.9107 8.08551 79.1687 14.7077 79.4389C21.3298 79.7091 26.9577 74.8953 27.8327 68.4734L21.3826 68.2103C20.6852 71.0983 18.0287 73.185 14.9395 73.059C11.8502 72.9329 9.35308 70.636 8.86721 67.6997L2.41717 67.4366Z" fill="black"/>
<path fill-rule="evenodd" clip-rule="evenodd" d="M15.3104 62.8511C13.1944 62.7648 11.4169 64.4086 11.3401 66.5228C11.2633 68.6369 12.9163 70.4207 15.0323 70.507C17.1482 70.5933 18.9258 68.9495 19.0026 66.8354C19.0794 64.7212 17.4263 62.9374 15.3104 62.8511ZM13.2557 66.6009C13.2941 65.5439 14.1828 64.7219 15.2409 64.7651C16.2988 64.8082 17.1254 65.7002 17.087 66.7572C17.0486 67.8142 16.1598 68.6362 15.1018 68.593C14.0438 68.5499 13.2173 67.6579 13.2557 66.6009Z" fill="black"/>
<path d="M78.4481 0C68.6412 5.61985 42.8742 30.6873 31.2166 42.5186C31.7934 45.4764 35.7835 48.4342 37.7064 49.5434C56.1663 32.3881 72.5592 9.36641 78.4481 0Z" fill="black"/>
<path d="M36.2642 51.0223C32.2261 49.2476 29.8946 45.5996 29.4138 43.9975L24.7267 51.0223C25.0873 53.9801 28.6927 55.8288 29.4138 55.8288C29.9907 55.8288 34.2211 52.6245 36.2642 51.0223Z" fill="black"/>
<path d="M78.4481 0C68.6412 5.61985 42.8742 30.6873 31.2166 42.5186C31.7934 45.4764 35.7835 48.4342 37.7064 49.5434C56.1663 32.3881 72.5592 9.36641 78.4481 0Z" stroke="black" stroke-linejoin="round"/>
<path d="M36.2642 51.0223C32.2261 49.2476 29.8946 45.5996 29.4138 43.9975L24.7267 51.0223C25.0873 53.9801 28.6927 55.8288 29.4138 55.8288C29.9907 55.8288 34.2211 52.6245 36.2642 51.0223Z" stroke="black" stroke-linejoin="round"/>
</g>
<defs>
<clipPath id="clip0_172_626">
<rect width="80" height="80" fill="white"/>
</clipPath>
</defs>
</svg>
