<svg width="80" height="80" viewBox="0 0 80 80" fill="none" xmlns="http://www.w3.org/2000/svg">
<path fill-rule="evenodd" clip-rule="evenodd" d="M41.1211 1.74267C40.9034 1.73535 40.6849 1.73165 40.4655 1.73165C33.1182 1.73165 26.7384 5.8741 23.5343 11.9509C21.569 11.1806 19.6963 9.87273 18.6575 7.9373C17.6517 6.48655 15.8331 5.72242 13.8421 4.88581L13.8421 4.8858L13.8421 4.8858C12.9066 4.49271 11.9331 4.08362 10.9878 3.57978C11.16 3.81114 11.3413 4.04778 11.5289 4.29261L11.5289 4.29262C13.321 6.63132 15.6858 9.71758 16.1626 16.096C16.3116 18.0903 18.5226 18.6416 21.4769 18.5376C21.3847 19.2988 21.3373 20.0738 21.3373 20.8598C21.3373 24.1514 22.1688 27.2489 23.6331 29.9535C22.4462 30.316 21.4916 30.2059 20.9677 29.987C21.628 30.6668 23.2042 31.6393 25.1117 32.27C27.8831 35.9932 31.9769 38.6739 36.6978 39.617L35.1059 51.1691C20.6905 51.1691 12.8359 38.6019 11.4499 30.2853L16.6246 31.8562L9.97134 20.1206C9.83415 20.5617 9.67434 21.0456 9.50135 21.5695C7.69343 27.044 4.4454 36.8794 10.5258 47.8425C12.7738 51.8958 16.2565 55.1289 20.187 57.6527C20.1073 57.8898 19.9561 57.9878 19.8588 58.0072C19.3044 58.0688 18.1585 58.5247 18.0107 59.8554C17.8628 61.186 18.3187 62.4427 18.5651 62.9048C18.6391 61.0566 19.6504 60.298 20.136 60.3174C22.2156 60.4006 22.9224 59.7599 23.0652 59.3391C24.3166 60.0082 25.5921 60.6136 26.8696 61.1586C27.226 62.2869 27.8356 63.2261 28.3602 63.4592C30.0236 64.1985 29.8387 65.677 29.4691 66.3238C29.0995 66.9707 28.7299 69.0036 30.3008 69.5581C31.5575 70.0016 31.1324 71.7758 30.7628 72.6075C31.9641 72.4227 33.073 70.1125 32.6109 69.5581C32.2413 69.1145 32.2413 68.8188 32.2413 68.3568C32.2413 66.9522 33.4734 65.985 34.0894 65.677C33.2763 67.3773 33.5042 68.6032 33.7198 69.0036C33.8262 69.2963 34.3463 69.7498 34.9976 70.3178C36.6087 71.7228 39.0234 73.8284 37.9705 75.9341C36.7877 78.2997 38.0321 79.6304 38.8022 80C38.6235 78.3024 39.0495 77.9007 40.5814 76.456L40.7427 76.3037C42.406 74.7328 41.6668 73.1619 40.7427 72.3302C40.0035 71.6649 39.9419 70.8825 40.0035 70.5745C40.0774 69.096 41.944 67.2479 42.8681 66.5086C42.8681 67.3037 43.2171 67.5403 43.7864 67.9264C44.1435 68.1685 44.5872 68.4694 45.0858 69.0036C45.8307 69.8017 45.5034 70.7913 45.1925 71.7311C45.0714 72.0971 44.9528 72.4556 44.901 72.7923C44.8086 74.9176 47.0264 75.6877 47.858 75.5645C46.3496 73.7132 47.6393 72.5495 48.424 71.8413C48.4854 71.7859 48.5437 71.7333 48.5973 71.6834C50.8074 69.6256 49.8119 68.5736 49.0322 67.7497L49.0322 67.7496C48.8665 67.5746 48.7106 67.4098 48.5973 67.2479C48.0798 66.5086 48.1968 66.0774 48.3201 65.9542C49.9545 64.3908 50.5813 62.9869 50.7095 62.4153C52.0064 61.962 53.3207 61.4482 54.6285 60.8704C54.8696 61.6629 55.9247 63.0683 58.4848 62.9972C61.1461 62.9233 61.0721 65.6154 60.7025 66.9707C61.8422 66.3854 63.2899 63.4592 61.6266 61.6111C60.9986 60.9133 60.4809 60.7361 60.0631 60.5932C59.6647 60.4568 59.3572 60.3516 59.1316 59.8554C58.8876 59.3186 59.0414 58.8521 59.3835 58.4385C63.7906 55.8362 67.7509 52.3882 70.2208 47.9349C76.3013 36.9718 73.0532 27.1364 71.2452 21.6619L71.2451 21.6614L71.2442 21.6588L71.2439 21.6579C71.0715 21.1356 70.9121 20.653 70.7752 20.213L64.1219 31.9486L69.2967 30.3777C67.9106 38.6943 60.056 51.2616 45.6403 51.2616L44.0409 39.6544C48.8438 38.7463 53.0118 36.0427 55.8209 32.2679C57.6443 31.6324 59.1398 30.6947 59.7785 30.0326C59.2751 30.2445 58.3738 30.3551 57.2511 30.0396C58.7445 27.3146 59.5936 24.1864 59.5936 20.8598C59.5936 20.0906 59.5482 19.3319 59.46 18.5864C62.3182 18.6599 64.4377 18.0918 64.5836 16.1471C65.0604 9.78971 67.4252 6.71364 69.2172 4.38265L69.2175 4.3823L69.2177 4.382C69.4051 4.13821 69.5863 3.90256 69.7584 3.67216C68.8131 4.17431 67.8396 4.58204 66.9042 4.97382L66.9041 4.97384L66.9041 4.97386L66.904 4.97387C64.913 5.80772 63.0945 6.56934 62.0886 8.0153C61.0818 9.88508 59.2915 11.1672 57.3927 11.9433C54.4089 6.29049 48.6764 2.31316 41.9741 1.79027C41.8044 1.06176 41.6086 0.437773 41.4421 0C41.4785 0.504885 41.3467 1.11061 41.1211 1.74267ZM49.2422 32.4687C47.5503 33.7499 45.5697 34.6696 43.4151 35.1132L42.4205 27.8952C43.1697 27.6874 43.8705 27.3632 44.5022 26.9433C45.5899 29.4487 47.1201 31.0647 47.6773 31.566C48.1687 31.9549 48.6946 32.2512 49.2422 32.4687ZM38.3206 27.8397C37.5832 27.6134 36.8956 27.2734 36.278 26.8403C35.1884 29.3733 33.6319 31.0067 33.0689 31.5098C32.5977 31.8801 32.095 32.1659 31.5718 32.3792C33.2391 33.6684 35.1941 34.6037 37.324 35.0723L38.3206 27.8397ZM52.7905 26.7955C50.6306 24.1458 48.6357 23.3981 47.3274 23.3566C47.611 22.5777 47.7656 21.7368 47.7656 20.8598C47.7656 19.3448 47.3041 17.9375 46.514 16.771C46.9225 16.641 47.2745 16.648 47.4884 16.7015C48.2064 16.8366 48.982 16.992 49.7928 17.1545C51.3681 17.4702 53.0763 17.8125 54.7535 18.0839C54.9271 18.9825 55.018 19.9105 55.018 20.8598C55.018 23.2558 54.4389 25.5166 53.4131 27.5098C53.2064 27.2887 52.9986 27.0509 52.7905 26.7955ZM50.2606 12.1736C47.746 9.50182 45.8758 12.2494 44.2697 14.628C43.4385 14.1195 42.4977 13.7727 41.4909 13.6311C41.3064 12.1694 41.2521 9.76445 41.9931 7.65943C42.1315 7.26649 42.2279 6.84984 42.29 6.42061C46.6135 6.96141 50.3475 9.39886 52.6329 12.8738C51.5307 12.8438 50.663 12.6011 50.2606 12.1736ZM38.6791 6.41589C37.4676 10.0941 38.6187 12.1233 39.754 13.5939C38.5862 13.7069 37.4989 14.095 36.5577 14.6926L36.4932 14.5967C34.8833 12.2046 33.0089 9.41945 30.4856 12.1094C30.1119 12.5077 29.3369 12.7462 28.3454 12.8023C30.6416 9.35524 34.3692 6.94345 38.6791 6.41589ZM34.4073 16.7853C33.9252 16.5905 33.5017 16.5911 33.2578 16.6523C32.5397 16.7878 31.7642 16.9437 30.9534 17.1067C29.4407 17.4109 27.8054 17.7397 26.1926 18.0065C26.0092 18.9291 25.913 19.8832 25.913 20.8598C25.913 23.1971 26.464 25.4057 27.4433 27.3628C27.6136 27.1773 27.7845 26.9806 27.9557 26.772C30.2197 24.0136 32.3024 23.3305 33.6031 23.3554C33.3199 22.5768 33.1654 21.7363 33.1654 20.8598C33.1654 19.351 33.6231 17.949 34.4073 16.7853Z" fill="black"/>
</svg>
