<svg width="80" height="80" viewBox="0 0 80 80" fill="none" xmlns="http://www.w3.org/2000/svg">
<g clip-path="url(#clip0_172_612)">
<path fill-rule="evenodd" clip-rule="evenodd" d="M0 10C0 4.47715 4.47715 0 10 0H70C75.5229 0 80 4.47715 80 10V17.5508H79.9751H79.9501H79.9249H79.8996H79.8743H79.8488H79.8232H79.7975H79.7716H79.7457H79.7196H79.6935H79.6672H79.6408H79.6143H79.5877H79.561H79.5342H79.5072H79.4802H79.4531H79.4258H79.3985H79.371H79.3434H79.3158H79.288H79.2601H79.2321H79.204H79.1759H79.1476H79.1192H79.0907H79.0621H79.0334H79.0047H78.9758H78.9468H78.9177H78.8886H78.8593H78.8299H78.8005H78.7709H78.7413H78.7115H78.6817H78.6517H78.6217H78.5916H78.5614H78.5311H78.5007H78.4702H78.4397H78.409H78.3783H78.3475H78.3165H78.2855H78.2544H78.2233H78.192H78.1607H78.1292H78.0977H78.0661H78.0344H78.0027H77.9708H77.9389H77.9069H77.8748H77.8426H77.8104H77.778H77.7456H77.7131H77.6806H77.6479H77.6152H77.5824H77.5496H77.5166H77.4836H77.4505H77.4173H77.3841H77.3508H77.3174H77.2839H77.2504H77.2168H77.1832H77.1494H77.1156H77.0817H77.0478H77.0138H76.9797H76.9456H76.9113H76.8771H76.8427H76.8083H76.7738H76.7393H76.7047H76.6701H76.6353H76.6005H76.5657H76.5308H76.4958H76.4608H76.4257H76.3906H76.3554H76.3201H76.2848H76.2494H76.214H76.1785H76.1429H76.1073H76.0717H76.036H76.0002H75.9644H75.9286H75.8926H75.8567H75.8206H75.7846H75.7485H75.7123H75.6761H75.6398H75.6035H75.5671H75.5307H75.4943H75.4578H75.4212H75.3846H75.348H75.3113H75.2746H75.2378H75.201H75.1641H75.1273H75.0903H75.0533H75.0163H74.9793H74.9422H74.905H74.8679H74.8307H74.7934H74.7561H74.7188H74.6815H74.6441H74.6067H74.5692H74.5317H74.4942H74.4566H74.419H74.3814H74.3438H74.3061H74.2684H74.2306H74.1928H74.155H74.1172H74.0793H74.0415H74.0036H73.9656H73.9277H73.8897H73.8516H73.8136H73.7756H73.7375H73.6994H73.6612H73.6231H73.5849H73.5467H73.5085H73.4703H73.432H73.3937H73.3554H73.3171H73.2788H73.2405H73.2021H73.1637H73.1253H73.0869H73.0485H73.0101H72.9716H72.9332H72.8947H72.8562H72.8177H72.7792H72.7407H72.7021H72.6636H72.6251H72.5865H72.5479H72.5094H72.4708H72.4322H72.3936H72.355H72.3164H72.2778H72.2392H72.2006H72.162H72.1233H72.0847H72.0461H72.0075H71.9688H71.9302H71.8916H71.853H71.8144H71.7757H71.7371H71.6985H71.6599H71.6213H71.5827H71.5441H71.5055H71.4669H71.4283H71.3897H71.3512H71.3126H71.274H71.2355H71.197H71.1584H71.1199H71.0814H71.0429H71.0045H70.966H70.9275H70.8891H70.8507H70.8122H70.7738H70.7355H70.6971H70.6587H70.6204H70.5821H70.5438H70.5055H70.4672H70.429H70.3907H70.3525H70.3144H70.2762H70.238H70.1999H70.1618H70.1237H70.0857H70.0477H70.0097H69.9717H69.9337H69.8958H69.8579H69.82H69.7822H69.7444H69.7066H69.6688H69.6311H69.5934H69.5557H69.5181H69.4805H69.4429H69.4053H69.3678H69.3303H69.2929H69.2555H69.2181H69.1808H69.1435H69.1062H69.069H69.0318H68.9946H68.9575H68.9204H68.8834H68.8464H68.8094H68.7725H68.7356H68.6988H68.662H68.6252H68.5885H68.5519H68.5152H68.4787H68.4421H68.4057H68.3692H68.3328H68.2965H68.2602H68.2239H68.1877H68.1516H68.1155H68.0794H68.0434H68.0075H67.9716H67.9357H67.8999H67.8642H67.8285H67.7929H67.7573H67.7218H67.6863H67.6509H67.6156H67.5803H67.545H67.5098H67.4747H67.4397H67.4047H67.3697H67.3348H67.3H67.2652H67.2305H67.1959H67.1613H67.1268H67.0924H67.058H67.0237H66.9894H66.9552H66.9211H66.8871H66.8531H66.8192H66.7853H66.7515H66.7178H66.6842H66.6506H66.6171H66.5837H66.5503H66.517H66.4838H66.4507H66.4176H66.3846H66.3517H66.3189H66.2861H66.2534H66.2208H66.1883H66.1558H66.1235H66.0912H66.0589H66.0268H65.9947H65.9628H65.9309H65.8991H65.8673H65.8357H65.8041H65.7726H65.7412H65.7099H65.6787H65.6475H65.6165H65.5855H65.5546H65.5238H65.4931H65.4625H65.432H65.4015H65.3712H65.3409H65.3107H65.2807H65.2507H65.2208H65.191H65.1613H65.1317H65.1021H65.0727H65.0434H65.0142H64.985H64.956H64.927H64.8982H64.8694H64.8408H64.8123H64.7838H64.7555H64.7272H64.6991H64.671H64.6431H64.6153H64.5875H64.5599H64.5324H64.505H64.4776H64.4504H64.4233H64.3963H64.3694H64.3427H64.316H64.2894H64.263H64.2366H64.2104H64.1843H64.1583H64.1324H64.1066H64.0809H64.0553H64.0299H64.0046H63.9793H63.9542H63.9293H63.9044H63.8796H63.855H63.8305H63.8061H63.7818H63.7576H63.7336H63.7097H63.6859H63.6622H63.6386H63.6152H63.5919H63.5687H63.5456H63.5226H63.4998H63.4771H63.4546H63.4321H63.4098H63.3876H63.3656H63.3436H63.3218H63.3001H63.2786H63.2572H63.2359H63.2147H63.1937H63.1728H63.1521H63.1314H63.1109H63.0906H63.0704H63.0503H63.0303H63.0231C60.8753 17.5508 57.7052 17.5508 53.6024 19.0194C49.5025 20.4869 44.5344 23.3958 38.6941 29.1173C38.4441 29.3622 38.1887 29.6151 37.9274 29.8737L37.9257 29.8754L37.9251 29.876C34.2031 33.5606 29.2941 38.4203 21.8182 38.4203H0V10ZM79.9751 19.5508H80V70C80 75.5229 75.5229 80 70 80H10C4.47715 80 0 75.5229 0 70V40.4203H21.8182C30.1531 40.4203 35.625 34.9829 39.2901 31.341L39.2912 31.3398C39.5689 31.0639 39.8363 30.7982 40.0937 30.546C45.7686 24.9866 50.4975 22.2551 54.2764 20.9024C58.0478 19.5524 60.9359 19.5508 63.0303 19.5508H63.0503H63.0704H63.0906H63.1109H63.1314H63.1521H63.1728H63.1937H63.2147H63.2359H63.2572H63.2786H63.3001H63.3218H63.3436H63.3656H63.3876H63.4098H63.4321H63.4546H63.4771H63.4998H63.5226H63.5456H63.5687H63.5919H63.6152H63.6386H63.6622H63.6859H63.7097H63.7336H63.7576H63.7818H63.8061H63.8305H63.855H63.8796H63.9044H63.9293H63.9542H63.9793H64.0046H64.0299H64.0553H64.0809H64.1066H64.1324H64.1583H64.1843H64.2104H64.2366H64.263H64.2894H64.316H64.3427H64.3694H64.3963H64.4233H64.4504H64.4776H64.505H64.5324H64.5599H64.5875H64.6153H64.6431H64.671H64.6991H64.7272H64.7555H64.7838H64.8123H64.8408H64.8694H64.8982H64.927H64.956H64.985H65.0142H65.0434H65.0727H65.1021H65.1317H65.1613H65.191H65.2208H65.2507H65.2807H65.3107H65.3409H65.3712H65.4015H65.432H65.4625H65.4931H65.5238H65.5546H65.5855H65.6165H65.6475H65.6787H65.7099H65.7412H65.7726H65.8041H65.8357H65.8673H65.8991H65.9309H65.9628H65.9947H66.0268H66.0589H66.0912H66.1235H66.1558H66.1883H66.2208H66.2534H66.2861H66.3189H66.3517H66.3846H66.4176H66.4507H66.4838H66.517H66.5503H66.5837H66.6171H66.6506H66.6842H66.7178H66.7515H66.7853H66.8192H66.8531H66.8871H66.9211H66.9552H66.9894H67.0237H67.058H67.0924H67.1268H67.1613H67.1959H67.2305H67.2652H67.3H67.3348H67.3697H67.4047H67.4397H67.4747H67.5098H67.545H67.5803H67.6156H67.6509H67.6863H67.7218H67.7573H67.7929H67.8285H67.8642H67.8999H67.9357H67.9716H68.0075H68.0434H68.0794H68.1155H68.1516H68.1877H68.2239H68.2602H68.2965H68.3328H68.3692H68.4057H68.4421H68.4787H68.5152H68.5519H68.5885H68.6252H68.662H68.6988H68.7356H68.7725H68.8094H68.8464H68.8834H68.9204H68.9575H68.9946H69.0318H69.069H69.1062H69.1435H69.1808H69.2181H69.2555H69.2929H69.3303H69.3678H69.4053H69.4429H69.4805H69.5181H69.5557H69.5934H69.6311H69.6688H69.7066H69.7444H69.7822H69.82H69.8579H69.8958H69.9337H69.9717H70.0097H70.0477H70.0857H70.1237H70.1618H70.1999H70.238H70.2762H70.3144H70.3525H70.3907H70.429H70.4672H70.5055H70.5438H70.5821H70.6204H70.6587H70.6971H70.7355H70.7738H70.8122H70.8507H70.8891H70.9275H70.966H71.0045H71.0429H71.0814H71.1199H71.1584H71.197H71.2355H71.274H71.3126H71.3512H71.3897H71.4283H71.4669H71.5055H71.5441H71.5827H71.6213H71.6599H71.6985H71.7371H71.7757H71.8144H71.853H71.8916H71.9302H71.9688H72.0075H72.0461H72.0847H72.1233H72.162H72.2006H72.2392H72.2778H72.3164H72.355H72.3936H72.4322H72.4708H72.5094H72.5479H72.5865H72.6251H72.6636H72.7021H72.7407H72.7792H72.8177H72.8562H72.8947H72.9332H72.9716H73.0101H73.0485H73.0869H73.1253H73.1637H73.2021H73.2405H73.2788H73.3171H73.3554H73.3937H73.432H73.4703H73.5085H73.5467H73.5849H73.6231H73.6612H73.6994H73.7375H73.7756H73.8136H73.8516H73.8897H73.9277H73.9656H74.0036H74.0415H74.0793H74.1172H74.155H74.1928H74.2306H74.2684H74.3061H74.3438H74.3814H74.419H74.4566H74.4942H74.5317H74.5692H74.6067H74.6441H74.6815H74.7188H74.7561H74.7934H74.8307H74.8679H74.905H74.9422H74.9793H75.0163H75.0533H75.0903H75.1273H75.1641H75.201H75.2378H75.2746H75.3113H75.348H75.3846H75.4212H75.4578H75.4943H75.5307H75.5671H75.6035H75.6398H75.6761H75.7123H75.7485H75.7846H75.8206H75.8567H75.8926H75.9286H75.9644H76.0002H76.036H76.0717H76.1073H76.1429H76.1785H76.214H76.2494H76.2848H76.3201H76.3554H76.3906H76.4257H76.4608H76.4958H76.5308H76.5657H76.6005H76.6353H76.6701H76.7047H76.7393H76.7738H76.8083H76.8427H76.8771H76.9113H76.9456H76.9797H77.0138H77.0478H77.0817H77.1156H77.1494H77.1832H77.2168H77.2504H77.2839H77.3174H77.3508H77.3841H77.4173H77.4505H77.4836H77.5166H77.5496H77.5824H77.6152H77.6479H77.6806H77.7131H77.7456H77.778H77.8104H77.8426H77.8748H77.9069H77.9389H77.9708H78.0027H78.0344H78.0661H78.0977H78.1292H78.1607H78.192H78.2233H78.2544H78.2855H78.3165H78.3475H78.3783H78.409H78.4397H78.4702H78.5007H78.5311H78.5614H78.5916H78.6217H78.6517H78.6817H78.7115H78.7413H78.7709H78.8005H78.8299H78.8593H78.8886H78.9177H78.9468H78.9758H79.0047H79.0334H79.0621H79.0907H79.1192H79.1476H79.1759H79.204H79.2321H79.2601H79.288H79.3158H79.3434H79.371H79.3985H79.4258H79.4531H79.4802H79.5072H79.5342H79.561H79.5877H79.6143H79.6408H79.6672H79.6935H79.7196H79.7457H79.7716H79.7975H79.8232H79.8488H79.8743H79.8996H79.9249H79.9501H79.9751ZM17.6744 27.5025C23.3257 27.5025 27.9069 22.9876 27.9069 17.4182C27.9069 11.8489 23.3257 7.33398 17.6744 7.33398C12.0231 7.33398 7.44183 11.8489 7.44183 17.4182C7.44183 22.9876 12.0231 27.5025 17.6744 27.5025Z" fill="black"/>
</g>
<defs>
<clipPath id="clip0_172_612">
<rect width="80" height="80" fill="white"/>
</clipPath>
</defs>
</svg>
