<svg width="44" height="50" viewBox="0 0 44 50" fill="none" xmlns="http://www.w3.org/2000/svg">
<g clip-path="url(#clip0_197_230)">
<path d="M41.9919 25.1363C35.0121 25.2733 36.466 29.6919 31.5471 30.8093C26.5502 31.9444 25.7613 18.6052 20.7657 18.6052C15.7692 18.6052 14.6627 31.5628 8.40658 40.4583L8.22803 40.7101L21.6409 48.4527L41.9919 36.7042V25.1363Z" fill="#36A2EB"/>
<path d="M41.9919 24.7342C39.6554 21.7355 38.0706 18.2882 34.6608 18.2882C28.627 18.2882 30.2149 28.1313 23.5463 28.1313C16.877 28.1313 16.1759 17.5436 8.62095 27.4963C6.21352 30.6676 4.27585 34.2036 2.75372 37.5495L21.6409 48.4531L41.9919 36.7046V24.7342Z" fill="#FFCE56"/>
<path opacity="0.8" d="M1.28937 28.8114C3.57906 22.4706 4.56724 17.3351 8.93852 17.3351C15.6071 17.3351 17.1944 36.0695 22.9112 34.1636C28.627 32.2586 27.9917 22.0974 36.884 22.0974C38.5765 22.0974 40.3046 23.1342 41.9922 24.8114V36.7042L21.6412 48.4525L1.28937 36.7043V28.8114Z" fill="#FE6184"/>
<path d="M21.625 49.9257L0.00338745 37.4448V12.4814L21.625 0L43.2466 12.4814V37.4443L21.625 49.9257ZM2.54376 35.978L21.625 46.9932L40.7063 35.978V13.948L21.625 2.93277L2.54376 13.948V35.978Z" fill="#E7E9ED"/>
</g>
<defs>
<clipPath id="clip0_197_230">
<rect width="43.25" height="50" fill="white"/>
</clipPath>
</defs>
</svg>
