<svg width="50" height="50" viewBox="0 0 50 50" fill="none" xmlns="http://www.w3.org/2000/svg">
<path d="M5 45.3125C3.625 45.3125 2.44833 44.8157 1.47 43.8221C0.491667 42.8284 0.00166667 41.6325 0 40.2344V9.76562C0 8.36914 0.49 7.17409 1.47 6.18047C2.45 5.18685 3.62667 4.68919 5 4.6875H45C46.375 4.6875 47.5525 5.18516 48.5325 6.18047C49.5125 7.17578 50.0017 8.37083 50 9.76562V40.2344C50 41.6309 49.5108 42.8268 48.5325 43.8221C47.5542 44.8174 46.3767 45.3142 45 45.3125H5ZM25 27.0947C25.2083 27.0947 25.4275 27.0626 25.6575 26.9982C25.8875 26.9339 26.1058 26.8391 26.3125 26.7139L44 15.4785C44.3333 15.2669 44.5833 15.0029 44.75 14.6863C44.9167 14.3698 45 14.0202 45 13.6377C45 12.7913 44.6458 12.1566 43.9375 11.7334C43.2292 11.3102 42.5 11.3314 41.75 11.7969L25 22.4609L8.25 11.7969C7.5 11.3314 6.77083 11.3212 6.0625 11.7664C5.35417 12.2116 5 12.8354 5 13.6377C5 14.0609 5.08333 14.4316 5.25 14.7498C5.41667 15.068 5.66667 15.3109 6 15.4785L23.6875 26.7139C23.8958 26.8408 24.115 26.9365 24.345 27.0008C24.575 27.0651 24.7933 27.0964 25 27.0947Z" fill="white"/>
</svg>
