<svg width="50" height="31" viewBox="0 0 50 31" fill="none" xmlns="http://www.w3.org/2000/svg">
<g clip-path="url(#clip0_193_199)">
<path d="M24.7178 30.5747C24.5485 30.5747 24.3905 30.5295 24.2438 30.4505L22.7427 29.559C22.517 29.4348 22.6299 29.3896 22.6976 29.3671C23.0023 29.2655 23.0588 29.2429 23.3748 29.0624C23.4086 29.0397 23.4539 29.0511 23.4876 29.0736L24.6389 29.7621C24.684 29.7846 24.7404 29.7846 24.7742 29.7621L29.2775 27.1549C29.3226 27.1324 29.3453 27.0872 29.3453 27.0308V21.8279C29.3453 21.7713 29.3226 21.7263 29.2775 21.7037L24.7742 19.1078C24.7291 19.0852 24.6727 19.0852 24.6389 19.1078L20.1356 21.7037C20.0905 21.7262 20.0678 21.7827 20.0678 21.8278V27.0307C20.0678 27.0759 20.0905 27.1323 20.1356 27.1549L21.3658 27.866C22.0317 28.2045 22.4493 27.8095 22.4493 27.4145V22.2792C22.4493 22.2115 22.5057 22.1438 22.5847 22.1438H23.1603C23.2281 22.1438 23.2958 22.2002 23.2958 22.2792V27.4145C23.2958 28.3061 22.8104 28.8253 21.964 28.8253C21.7044 28.8253 21.5013 28.8253 20.9256 28.5431L19.7406 27.866C19.4471 27.6967 19.2666 27.3806 19.2666 27.0421V21.8391C19.2666 21.5005 19.4471 21.1844 19.7406 21.0152L24.2438 18.4081C24.526 18.2501 24.9098 18.2501 25.1919 18.4081L29.6951 21.0152C29.9885 21.1844 30.1692 21.5005 30.1692 21.8391V27.0421C30.1692 27.3806 29.9885 27.6967 29.6951 27.866L25.1919 30.4731C25.0451 30.5409 24.8758 30.5747 24.7178 30.5747ZM26.1061 26.9969C24.1311 26.9969 23.7247 26.094 23.7247 25.3266C23.7247 25.2588 23.7812 25.1911 23.8602 25.1911H24.4471C24.5148 25.1911 24.5712 25.2363 24.5712 25.304C24.6615 25.9022 24.9211 26.1956 26.1174 26.1956C27.0655 26.1956 27.4719 25.9812 27.4719 25.4733C27.4719 25.1798 27.3589 24.9655 25.8804 24.8187C24.6502 24.6945 23.8828 24.4237 23.8828 23.4418C23.8828 22.5276 24.6503 21.9858 25.9369 21.9858C27.3815 21.9858 28.0926 22.4824 28.1829 23.5658C28.1829 23.5997 28.1716 23.6336 28.149 23.6675C28.1264 23.69 28.0926 23.7126 28.0587 23.7126H27.4718C27.4154 23.7126 27.3589 23.6675 27.3477 23.611C27.2122 22.9903 26.8623 22.7871 25.9369 22.7871C24.8985 22.7871 24.7743 23.1483 24.7743 23.4191C24.7743 23.7465 24.9211 23.848 26.3206 24.0286C27.7088 24.2092 28.3635 24.4688 28.3635 25.4394C28.3521 26.4326 27.5396 26.9969 26.1061 26.9969Z" fill="#539E43"/>
<path d="M10.7454 10.2255C10.7454 10.0224 10.6325 9.83038 10.4519 9.72882L5.66653 6.975C5.58743 6.92979 5.4972 6.90723 5.40697 6.8959H5.36175C5.27152 6.8959 5.18119 6.92979 5.10219 6.975L0.316797 9.72882C0.136139 9.83038 0.0233498 10.0223 0.0233498 10.2255L0.0346775 17.6292C0.0346775 17.7308 0.091121 17.8324 0.181353 17.8776C0.271682 17.934 0.384471 17.934 0.46357 17.8776L3.30772 16.2523C3.48828 16.1508 3.60117 15.9589 3.60117 15.7558V12.2908C3.60117 12.0877 3.71396 11.8958 3.89461 11.7943L5.10219 11.0945C5.19252 11.0381 5.29408 11.0154 5.39564 11.0154C5.4972 11.0154 5.59876 11.0381 5.67786 11.0945L6.88544 11.7943C7.06609 11.8958 7.17888 12.0876 7.17888 12.2908V15.7558C7.17888 15.9589 7.29177 16.1508 7.47233 16.2523L10.3165 17.8776C10.3604 17.9052 10.4113 17.9199 10.4632 17.9199C10.5151 17.9199 10.566 17.9052 10.6099 17.8776C10.7003 17.8324 10.7567 17.7308 10.7567 17.6292L10.7454 10.2255ZM33.7469 0.0339101C33.6567 -0.0113034 33.5438 -0.0113034 33.4647 0.0339101C33.3744 0.0903536 33.318 0.180585 33.318 0.282144V7.61834C33.318 7.68601 33.2842 7.75368 33.2164 7.7989C33.1487 7.83269 33.081 7.83269 33.0133 7.7989L31.817 7.11044C31.7293 7.06053 31.6301 7.03429 31.5291 7.03429C31.4282 7.03429 31.329 7.06053 31.2413 7.11044L26.4559 9.87559C26.2753 9.97715 26.1625 10.169 26.1625 10.3722V15.8911C26.1625 16.0942 26.2753 16.2862 26.4559 16.3878L31.2413 19.1529C31.329 19.2028 31.4282 19.2291 31.5291 19.2291C31.6301 19.2291 31.7293 19.2028 31.817 19.1529L36.6024 16.3878C36.7829 16.2862 36.8958 16.0943 36.8958 15.8911V2.13316C36.8958 1.91871 36.7829 1.72692 36.6024 1.62527L33.7469 0.0339101ZM33.3068 14.0741C33.3068 14.1305 33.2842 14.1756 33.239 14.1982L31.6025 15.1462C31.5797 15.1574 31.5546 15.1632 31.5291 15.1632C31.5037 15.1632 31.4786 15.1574 31.4558 15.1462L29.8193 14.1982C29.7741 14.1756 29.7515 14.1192 29.7515 14.0741V12.178C29.7515 12.1215 29.7741 12.0764 29.8193 12.0538L31.4558 11.1057C31.4786 11.0945 31.5037 11.0887 31.5291 11.0887C31.5546 11.0887 31.5797 11.0945 31.6025 11.1057L33.239 12.0538C33.2842 12.0763 33.3068 12.1328 33.3068 12.178V14.0741ZM49.6719 12.1328C49.8525 12.0313 49.9541 11.8394 49.9541 11.6362V10.2932C49.9541 10.09 49.8412 9.89815 49.6719 9.79659L44.9204 7.04277C44.8326 6.99286 44.7335 6.96661 44.6325 6.96661C44.5316 6.96661 44.4324 6.99286 44.3447 7.04277L39.5593 9.80782C39.3786 9.90938 39.2659 10.1013 39.2659 10.3044V15.8234C39.2659 16.0266 39.3787 16.2185 39.5593 16.32L44.3108 19.0287C44.4915 19.1303 44.7059 19.1303 44.8752 19.0287L47.7532 17.4262C47.8435 17.381 47.9 17.2795 47.9 17.1779C47.9 17.0763 47.8435 16.9748 47.7532 16.9296L42.9452 14.1644C42.8549 14.108 42.7985 14.0177 42.7985 13.9162V12.1894C42.7985 12.0878 42.8549 11.9863 42.9452 11.9411L44.4463 11.0833C44.4902 11.0556 44.5411 11.0409 44.593 11.0409C44.6449 11.0409 44.6958 11.0556 44.7397 11.0833L46.2408 11.9411C46.3312 11.9975 46.3875 12.0877 46.3875 12.1894V13.5437C46.3875 13.6453 46.4439 13.7469 46.5343 13.792C46.5782 13.8196 46.6291 13.8343 46.681 13.8343C46.7329 13.8343 46.7838 13.8196 46.8277 13.792L49.6719 12.1328Z" fill="#333333"/>
<path d="M44.5591 11.8731C44.5759 11.8621 44.5955 11.8562 44.6156 11.8562C44.6357 11.8562 44.6553 11.8621 44.672 11.8731L45.5863 12.4036C45.62 12.4262 45.6426 12.46 45.6426 12.5051V13.5661C45.6426 13.6113 45.6201 13.6451 45.5863 13.6677L44.672 14.1982C44.6553 14.2092 44.6357 14.2151 44.6156 14.2151C44.5955 14.2151 44.5759 14.2092 44.5591 14.1982L43.645 13.6677C43.6111 13.6451 43.5886 13.6113 43.5886 13.5661V12.5052C43.5886 12.46 43.611 12.4261 43.645 12.4037L44.5591 11.8731Z" fill="#539E43"/>
<path d="M18.7474 7.06539C18.6597 7.01549 18.5605 6.98926 18.4596 6.98926C18.3587 6.98926 18.2595 7.01549 18.1718 7.06539L13.4203 9.80778C13.2396 9.90934 13.1381 10.1012 13.1381 10.3043V15.8009C13.1381 16.004 13.251 16.1959 13.4203 16.2974L18.1718 19.04C18.2595 19.0899 18.3587 19.1161 18.4596 19.1161C18.5605 19.1161 18.6597 19.0899 18.7474 19.04L23.499 16.2974C23.6795 16.1959 23.7812 16.004 23.7812 15.8009V10.3044C23.7812 10.1013 23.6682 9.90944 23.499 9.80788L18.7474 7.06539Z" fill="url(#paint0_linear_193_199)"/>
<mask id="mask0_193_199" style="mask-type:luminance" maskUnits="userSpaceOnUse" x="13" y="6" width="11" height="14">
<path d="M18.7474 7.06539C18.6597 7.01549 18.5605 6.98926 18.4596 6.98926C18.3587 6.98926 18.2595 7.01549 18.1718 7.06539L13.4203 9.80778C13.2396 9.90934 13.1381 10.1012 13.1381 10.3043V15.8009C13.1381 16.004 13.251 16.1959 13.4203 16.2974L18.1718 19.04C18.2595 19.0899 18.3587 19.1161 18.4596 19.1161C18.5605 19.1161 18.6597 19.0899 18.7474 19.04L23.499 16.2974C23.6795 16.1959 23.7812 16.004 23.7812 15.8009V10.3044C23.7812 10.1013 23.6682 9.90944 23.499 9.80788L18.7474 7.06539Z" fill="white"/>
</mask>
<g mask="url(#mask0_193_199)">
<path d="M23.5102 9.80785L18.7361 7.06535C18.6892 7.04165 18.6401 7.02274 18.5894 7.00891L13.2396 16.1735C13.284 16.2275 13.3375 16.2734 13.3977 16.3089L18.1718 19.0515C18.3072 19.1305 18.4652 19.1531 18.6119 19.1078L23.6344 9.92083C23.6005 9.87572 23.5553 9.84163 23.5102 9.80785Z" fill="url(#paint1_linear_193_199)"/>
</g>
<mask id="mask1_193_199" style="mask-type:luminance" maskUnits="userSpaceOnUse" x="13" y="6" width="11" height="14">
<path d="M18.7474 7.06539C18.6597 7.01549 18.5605 6.98926 18.4596 6.98926C18.3587 6.98926 18.2595 7.01549 18.1718 7.06539L13.4203 9.80778C13.2396 9.90934 13.1381 10.1012 13.1381 10.3043V15.8009C13.1381 16.004 13.251 16.1959 13.4203 16.2974L18.1718 19.04C18.2595 19.0899 18.3587 19.1161 18.4596 19.1161C18.5605 19.1161 18.6597 19.0899 18.7474 19.04L23.499 16.2974C23.6795 16.1959 23.7812 16.004 23.7812 15.8009V10.3044C23.7812 10.1013 23.6682 9.90944 23.499 9.80788L18.7474 7.06539Z" fill="white"/>
</mask>
<g mask="url(#mask1_193_199)">
<path fill-rule="evenodd" clip-rule="evenodd" d="M23.5215 16.2975C23.657 16.2185 23.7585 16.083 23.8037 15.9364L18.5667 6.99758C18.4313 6.97502 18.2845 6.98625 18.1605 7.06525L13.4202 9.79661L18.5328 19.1191C18.6072 19.107 18.6794 19.0842 18.7473 19.0514L23.5215 16.2975Z" fill="url(#paint2_linear_193_199)"/>
<path fill-rule="evenodd" clip-rule="evenodd" d="M23.5215 16.2975L18.7587 19.0401C18.6914 19.0743 18.619 19.0972 18.5442 19.1078L18.6346 19.2771L23.9165 16.2186V16.1508L23.7811 15.925C23.7585 16.0831 23.657 16.2185 23.5215 16.2975Z" fill="url(#paint3_linear_193_199)"/>
<path fill-rule="evenodd" clip-rule="evenodd" d="M23.5215 16.2975L18.7587 19.0401C18.6914 19.0743 18.619 19.0972 18.5442 19.1078L18.6346 19.2771L23.9165 16.2186V16.1508L23.7811 15.925C23.7585 16.0831 23.657 16.2185 23.5215 16.2975Z" fill="url(#paint4_linear_193_199)"/>
</g>
</g>
<defs>
<linearGradient id="paint0_linear_193_199" x1="738.871" y1="219.052" x2="218.065" y2="1037.4" gradientUnits="userSpaceOnUse">
<stop stop-color="#41873F"/>
<stop offset="0.3288" stop-color="#418B3D"/>
<stop offset="0.6352" stop-color="#419637"/>
<stop offset="0.9319" stop-color="#3FA92D"/>
<stop offset="1" stop-color="#3FAE2A"/>
</linearGradient>
<linearGradient id="paint1_linear_193_199" x1="463.095" y1="675.767" x2="1767.44" y2="-32.8901" gradientUnits="userSpaceOnUse">
<stop offset="0.1376" stop-color="#41873F"/>
<stop offset="0.4032" stop-color="#54A044"/>
<stop offset="0.7136" stop-color="#66B848"/>
<stop offset="0.9081" stop-color="#6CC04A"/>
</linearGradient>
<linearGradient id="paint2_linear_193_199" x1="-32.1532" y1="613.539" x2="1067.34" y2="613.539" gradientUnits="userSpaceOnUse">
<stop offset="0.09192" stop-color="#6CC04A"/>
<stop offset="0.2864" stop-color="#66B848"/>
<stop offset="0.5968" stop-color="#54A044"/>
<stop offset="0.8624" stop-color="#41873F"/>
</linearGradient>
<linearGradient id="paint3_linear_193_199" x1="-539.427" y1="184.449" x2="560.055" y2="184.449" gradientUnits="userSpaceOnUse">
<stop offset="0.09192" stop-color="#6CC04A"/>
<stop offset="0.2864" stop-color="#66B848"/>
<stop offset="0.5968" stop-color="#54A044"/>
<stop offset="0.8624" stop-color="#41873F"/>
</linearGradient>
<linearGradient id="paint4_linear_193_199" x1="720.235" y1="-691.587" x2="441.693" y2="767.964" gradientUnits="userSpaceOnUse">
<stop stop-color="#41873F"/>
<stop offset="0.3288" stop-color="#418B3D"/>
<stop offset="0.6352" stop-color="#419637"/>
<stop offset="0.9319" stop-color="#3FA92D"/>
<stop offset="1" stop-color="#3FAE2A"/>
</linearGradient>
<clipPath id="clip0_193_199">
<rect width="50" height="30.6631" fill="white"/>
</clipPath>
</defs>
</svg>
