<svg width="50" height="50" viewBox="0 0 50 50" fill="none" xmlns="http://www.w3.org/2000/svg">
<g clip-path="url(#clip0_172_672)">
<path d="M47.0833 50C41.2963 50 35.5676 48.75 29.8972 46.25C24.2268 43.75 19.0759 40.1852 14.4444 35.5556C9.81296 30.9259 6.24815 25.787 3.75 20.1389C1.25185 14.4907 0.00185185 8.75 0 2.91667V0H16.3889L18.9583 13.9583L11.0417 21.9444C12.0602 23.75 13.1944 25.463 14.4444 27.0833C15.6944 28.7037 17.037 30.2083 18.4722 31.5972C19.8148 32.9398 21.2852 34.225 22.8833 35.4528C24.4815 36.6806 26.2056 37.8259 28.0556 38.8889L36.1111 30.8333L50 33.6806V50H47.0833Z" fill="white"/>
</g>
<defs>
<clipPath id="clip0_172_672">
<rect width="50" height="50" fill="white"/>
</clipPath>
</defs>
</svg>
