<svg width="51" height="50" viewBox="0 0 51 50" fill="none" xmlns="http://www.w3.org/2000/svg">
<g clip-path="url(#clip0_193_170)">
<path d="M24.889 0.0141602C12.1769 0.0141602 12.9706 5.52691 12.9706 5.52691L12.9847 11.2383H25.1157V12.953H8.16646C8.16646 12.953 0.0319519 12.0304 0.0319519 24.8569C0.0319519 37.6838 7.13195 37.2289 7.13195 37.2289H11.3692V31.2767C11.3692 31.2767 11.1408 24.1767 18.3559 24.1767H30.3876C30.3876 24.1767 37.1474 24.2859 37.1474 17.6436V6.66083C37.1474 6.66083 38.1741 0.0141602 24.889 0.0141602ZM18.2 3.85494C18.4867 3.85469 18.7706 3.91096 19.0354 4.02054C19.3003 4.13012 19.541 4.29086 19.7437 4.49357C19.9464 4.69627 20.1072 4.93695 20.2167 5.20184C20.3263 5.46673 20.3826 5.75063 20.3823 6.0373C20.3826 6.32396 20.3263 6.60786 20.2167 6.87275C20.1072 7.13764 19.9464 7.37833 19.7437 7.58103C19.541 7.78373 19.3003 7.94447 19.0354 8.05405C18.7706 8.16364 18.4867 8.21991 18.2 8.21965C17.9133 8.21991 17.6294 8.16364 17.3645 8.05405C17.0996 7.94447 16.859 7.78373 16.6563 7.58103C16.4536 7.37833 16.2928 7.13764 16.1832 6.87275C16.0737 6.60786 16.0174 6.32396 16.0176 6.0373C16.0174 5.75063 16.0737 5.46673 16.1832 5.20184C16.2928 4.93695 16.4536 4.69627 16.6563 4.49357C16.859 4.29086 17.0996 4.13012 17.3645 4.02054C17.6294 3.91096 17.9133 3.85469 18.2 3.85494Z" fill="url(#paint0_linear_193_170)"/>
<path d="M25.25 49.8286C37.9622 49.8286 37.1684 44.3159 37.1684 44.3159L37.1543 38.6047H25.0231V36.89H41.9723C41.9723 36.89 50.1069 37.8126 50.1069 24.9857C50.1069 12.159 43.0069 12.6139 43.0069 12.6139H38.7696V18.5659C38.7696 18.5659 38.998 25.6659 31.7829 25.6659H19.7512C19.7512 25.6659 12.9914 25.5567 12.9914 32.1992V43.1822C12.9914 43.1822 11.9649 49.8286 25.2498 49.8286M31.9388 45.9882C31.6522 45.9885 31.3683 45.9322 31.1034 45.8227C30.8385 45.7131 30.5978 45.5523 30.3951 45.3496C30.1924 45.1469 30.0316 44.9062 29.9221 44.6413C29.8125 44.3765 29.7562 44.0926 29.7565 43.8059C29.7562 43.5192 29.8124 43.2353 29.922 42.9704C30.0316 42.7055 30.1923 42.4648 30.395 42.262C30.5977 42.0593 30.8384 41.8986 31.1033 41.789C31.3682 41.6794 31.6521 41.6231 31.9388 41.6233C32.2255 41.6231 32.5094 41.6794 32.7743 41.7889C33.0392 41.8985 33.2798 42.0593 33.4825 42.262C33.6853 42.4647 33.846 42.7054 33.9556 42.9702C34.0652 43.2351 34.1214 43.519 34.1212 43.8057C34.1214 44.0924 34.0652 44.3763 33.9556 44.6412C33.846 44.906 33.6853 45.1467 33.4825 45.3494C33.2798 45.5521 33.0392 45.7129 32.7743 45.8225C32.5094 45.932 32.2255 45.9885 31.9388 45.9882Z" fill="url(#paint1_linear_193_170)"/>
</g>
<defs>
<linearGradient id="paint0_linear_193_170" x1="481.25" y1="448.066" x2="2962.81" y2="2904.87" gradientUnits="userSpaceOnUse">
<stop stop-color="#387EB8"/>
<stop offset="1" stop-color="#366994"/>
</linearGradient>
<linearGradient id="paint1_linear_193_170" x1="723.27" y1="778.494" x2="3388.18" y2="3297.72" gradientUnits="userSpaceOnUse">
<stop stop-color="#FFE052"/>
<stop offset="1" stop-color="#FFC331"/>
</linearGradient>
<clipPath id="clip0_193_170">
<rect width="50.2031" height="50" fill="white"/>
</clipPath>
</defs>
</svg>
