<svg width="50" height="38" viewBox="0 0 50 38" fill="none" xmlns="http://www.w3.org/2000/svg">
<g clip-path="url(#clip0_193_157)">
<path d="M43.0222 21.583C41.2829 21.592 39.7711 22.0109 38.5054 22.6302C38.0408 21.7104 37.5764 20.8909 37.4945 20.2898C37.4033 19.5886 37.2942 19.1606 37.4033 18.3227C37.5127 17.4849 38.0045 16.2918 37.9953 16.2008C37.9861 16.1098 37.8859 15.6817 36.8842 15.6727C35.8826 15.6638 35.0174 15.8639 34.9172 16.128C34.817 16.392 34.6258 16.9931 34.4983 17.6122C34.3252 18.5231 32.4949 21.774 31.4477 23.477C31.1107 22.8124 30.8193 22.2295 30.7554 21.765C30.6644 21.0639 30.555 20.6358 30.6644 19.798C30.7738 18.9602 31.2655 17.7673 31.2563 17.6761C31.2472 17.5851 31.147 17.157 30.1453 17.148C29.1434 17.1388 28.2783 17.3392 28.1783 17.6033C28.0781 17.8675 27.9687 18.4866 27.7594 19.0877C27.55 19.6888 25.1184 25.1165 24.4809 26.5188C24.2233 27.0863 23.9531 27.6481 23.6704 28.2036C23.6704 28.2036 23.6612 28.2309 23.6339 28.2764C23.5451 28.4506 23.4541 28.6237 23.3609 28.7955V28.8045C23.2242 29.0506 23.0785 29.2781 23.0056 29.2781C22.9509 29.2781 22.8508 28.6225 23.0238 27.73C23.388 25.845 24.2532 22.9126 24.2442 22.8124C24.2442 22.7577 24.4081 22.2478 23.6796 21.9836C22.9691 21.7195 22.7142 22.1566 22.6504 22.1566C22.5865 22.1566 22.541 22.3115 22.541 22.3115C22.541 22.3115 23.3335 19.0149 21.0294 19.0149C19.5907 19.0149 17.6053 20.5903 16.6217 22.0109C15.5037 22.6193 14.3866 23.2295 13.2704 23.8414C12.7334 24.142 12.1778 24.4426 11.6587 24.7248C11.6221 24.6884 11.5858 24.6427 11.5493 24.6064C8.7626 21.6285 3.60831 19.5248 3.82685 15.527C3.90887 14.0699 4.40962 10.245 13.7259 5.60067C21.3936 1.82128 27.4953 2.86846 28.5517 5.19074C30.0633 8.50572 25.2824 14.6619 17.3594 15.5542C14.336 15.8913 12.7513 14.7255 12.3508 14.2885C11.9319 13.833 11.868 13.8057 11.7131 13.8969C11.4583 14.0336 11.6221 14.4433 11.7131 14.68C11.95 15.2991 12.9244 16.392 14.5727 16.9295C16.0298 17.4029 19.5723 17.6671 23.8616 16.0096C28.6608 14.1518 32.4129 8.9883 31.311 4.66266C30.209 0.27316 22.9236 -1.17477 16.0298 1.27484C11.9319 2.73215 7.48769 5.02689 4.29126 8.01396C0.493708 11.5654 -0.107417 14.6527 0.138463 15.946C1.02199 20.5356 7.35118 23.5227 9.88282 25.7356C9.75529 25.8085 9.63675 25.8723 9.53675 25.927C8.27084 26.5553 3.44426 29.0777 2.2422 31.7461C0.876296 34.7695 2.46094 36.9371 3.50812 37.2283C6.75924 38.13 10.1014 36.509 11.8954 33.8315C13.6894 31.1541 13.4708 27.6753 12.6422 26.0817C12.633 26.0635 12.624 26.0452 12.6057 26.027C12.9336 25.8358 13.2704 25.6354 13.5984 25.4442C14.201 25.088 14.8113 24.7448 15.4289 24.415C15.1191 25.262 14.8914 26.2729 14.7822 27.73C14.6455 29.4422 15.3467 31.6641 16.2665 32.5382C16.6764 32.921 17.159 32.93 17.4688 32.93C18.5433 32.93 19.0261 32.0375 19.5633 30.9811C20.2189 29.688 20.8109 28.1854 20.8109 28.1854C20.8109 28.1854 20.0732 32.247 22.0768 32.247C22.8053 32.247 23.5429 31.2998 23.8708 30.8173V30.8262C23.8708 30.8262 23.889 30.7989 23.9255 30.7352C23.9983 30.6169 24.0438 30.5438 24.0438 30.5438V30.5259C24.3352 30.0158 24.991 28.8592 25.9654 26.9377C27.2221 24.4607 28.4333 21.3645 28.4333 21.3645C28.4333 21.3645 28.5427 22.1203 28.9159 23.377C29.1346 24.1147 29.5897 24.9251 29.9541 25.7083C29.6627 26.1182 29.4805 26.3457 29.4805 26.3457L29.4897 26.3549C29.2528 26.6645 28.9979 27.0013 28.7155 27.3294C27.7228 28.5131 26.5391 29.8703 26.3751 30.2616C26.1837 30.7261 26.2294 31.0631 26.5938 31.3364C26.8579 31.5367 27.3313 31.5639 27.814 31.5367C28.7065 31.4729 29.3348 31.2543 29.6444 31.1178C30.1271 30.9448 30.6917 30.6805 31.2198 30.289C32.1944 29.5695 32.7861 28.5405 32.7316 27.1838C32.7043 26.4369 32.4584 25.6901 32.1578 24.9888C32.249 24.8615 32.3309 24.7339 32.4221 24.6064C33.961 22.357 35.1541 19.889 35.1541 19.889C35.1541 19.889 35.2635 20.6448 35.6367 21.9017C35.8189 22.5392 36.1923 23.2313 36.52 23.9051C35.0721 25.08 34.1796 26.4459 33.8608 27.3384C33.2872 28.9959 33.7333 29.7425 34.5803 29.9156C34.9627 29.9976 35.5091 29.8154 35.9099 29.6423C36.4198 29.4785 37.0209 29.1963 37.5947 28.7772C38.5693 28.0579 39.5071 27.056 39.4524 25.6993C39.425 25.08 39.2612 24.4697 39.0335 23.8778C40.2629 23.368 41.8475 23.0856 43.869 23.3223C48.2041 23.8323 49.06 26.5369 48.896 27.6755C48.7321 28.8137 47.8215 29.433 47.5211 29.6242C47.2203 29.8156 47.1203 29.8792 47.1477 30.0158C47.184 30.2161 47.3297 30.2071 47.5848 30.1706C47.94 30.107 49.8615 29.2508 49.9434 27.1562C50.0801 24.4789 47.5301 21.5557 43.0222 21.583ZM9.58226 32.8571C8.14331 34.4234 6.13995 35.0154 5.27478 34.5146C4.34595 33.9772 4.71018 31.6641 6.47684 30.0068C7.55136 28.9959 8.93563 28.0577 9.85548 27.4841C10.0648 27.3566 10.3746 27.1746 10.748 26.9469C10.8117 26.9103 10.8482 26.8922 10.8482 26.8922L11.0667 26.7555C11.7131 29.1232 11.0941 31.2088 9.58226 32.8571ZM20.0551 25.7356C19.5541 26.956 18.507 30.0796 17.8695 29.9066C17.3231 29.7609 16.986 27.3931 17.7601 25.0527C18.1517 23.8778 18.9804 22.4753 19.4631 21.9291C20.2463 21.0547 21.1114 20.7632 21.3208 21.1186C21.585 21.583 20.3646 24.9706 20.0551 25.7356ZM28.6974 29.8701C28.4878 29.9794 28.2876 30.0523 28.1964 29.9976C28.1328 29.9611 28.2876 29.8154 28.2876 29.8154C28.2876 29.8154 29.3713 28.6498 29.7992 28.1216C30.0453 27.812 30.3365 27.4478 30.6462 27.0379V27.1562C30.6462 28.5497 29.2983 29.4877 28.6972 29.8701M35.3633 28.3493C35.2084 28.2399 35.2357 27.8757 35.7548 26.7373C35.9552 26.291 36.4286 25.5444 37.2393 24.825C37.3303 25.1163 37.3942 25.3987 37.385 25.6628C37.3758 27.4205 36.1193 28.0761 35.3633 28.3493Z" fill="#CD6799"/>
</g>
<defs>
<clipPath id="clip0_193_157">
<rect width="50" height="37.4971" fill="white"/>
</clipPath>
</defs>
</svg>
