<svg width="50" height="31" viewBox="0 0 50 31" fill="none" xmlns="http://www.w3.org/2000/svg">
<path d="M25 0C18.334 0 14.1677 3.33301 12.5012 9.99902C15.001 6.66602 17.9174 5.41614 21.2504 6.24939C23.1519 6.72473 24.5112 8.10448 26.0157 9.63148C28.4667 12.1193 31.3031 14.9985 37.4988 14.9985C44.1648 14.9985 48.3311 11.6655 49.9976 4.99951C47.4978 8.33252 44.5814 9.5824 41.2484 8.74914C39.3468 8.2738 37.9876 6.89405 36.4831 5.36705C34.0321 2.87921 31.1957 0 25 0ZM12.5012 14.9985C5.8352 14.9985 1.66895 18.3315 0.00244141 24.9976C2.5022 21.6645 5.41858 20.4147 8.75159 21.2479C10.6532 21.7233 12.0124 23.103 13.5169 24.63C15.9679 27.1179 18.8043 29.9971 25 29.9971C31.666 29.9971 35.8323 26.6641 37.4988 19.998C34.999 23.3311 32.0826 24.5809 28.7496 23.7477C26.8481 23.2723 25.4888 21.8926 23.9843 20.3656C21.5333 17.8777 18.6969 14.9985 12.5012 14.9985Z" fill="url(#paint0_linear_193_174)"/>
<defs>
<linearGradient id="paint0_linear_193_174" x1="-138.884" y1="959.906" x2="4179.01" y2="3449.53" gradientUnits="userSpaceOnUse">
<stop stop-color="#2298BD"/>
<stop offset="1" stop-color="#0ED7B5"/>
</linearGradient>
</defs>
</svg>
