<svg width="154" height="114" viewBox="0 0 154 114" fill="none" xmlns="http://www.w3.org/2000/svg">
<g clip-path="url(#clip0_8_36)">
<path d="M133 80.5H0" stroke="#39AFAF"/>
<path d="M133 78.5H0" stroke="#39AFAF"/>
<path d="M87.3338 37.5455L103.325 84.3395H103.97L119.961 37.5455H129.331L108.655 95H98.6396L77.9638 37.5455H87.3338Z" fill="white"/>
<path d="M154 37.5H50" stroke="#39AFAF"/>
<path d="M154 35.5H50" stroke="#39AFAF"/>
<path d="M76 28L85.5263 55.75H66.4737L76 28Z" fill="#333333"/>
<path d="M81 37.5H70" stroke="#39AFAF"/>
<path d="M81 35.5H70" stroke="#39AFAF"/>
<path d="M59.3068 78H49.9886L70.9261 19.8182H81.0682L102.006 78H92.6875L76.2386 30.3864H75.7841L59.3068 78ZM60.8693 55.2159H91.0966V62.6023H60.8693V55.2159Z" fill="white"/>
<path d="M99.9094 63.9968L97.277 64.7823L101.28 78.1978L103.913 77.4122L99.9094 63.9968Z" fill="#333333"/>
<path d="M138.471 18.1675L106.471 108.168" stroke="#39AFAF"/>
</g>
<defs>
<clipPath id="clip0_8_36">
<rect width="154" height="114" fill="white"/>
</clipPath>
</defs>
</svg>
