<svg width="80" height="80" viewBox="0 0 80 80" fill="none" xmlns="http://www.w3.org/2000/svg">
<g clip-path="url(#clip0_167_243)">
<path fill-rule="evenodd" clip-rule="evenodd" d="M18.9772 27.2257C18.9423 27.158 18.9146 27.0855 18.8955 27.0091L16.3691 16.9009C16.1853 16.1657 16.8544 15.5012 17.5884 15.69L27.3559 18.2023C27.4592 18.2288 27.5553 18.271 27.6418 18.3258L38.7142 0.735926C39.1064 0.112886 40.0146 0.112887 40.4068 0.735926L51.7379 18.7368C51.8461 18.6517 51.9731 18.5881 52.1132 18.5531L62.2185 16.0261C62.9537 15.8423 63.6183 16.5112 63.4296 17.2452L60.9178 27.0156C60.8759 27.1786 60.7952 27.3236 60.6872 27.4416L79.2479 38.7134C79.8796 39.097 79.8913 40.0095 79.2697 40.4092L60.6337 52.3924L63.0934 62.2339C63.2772 62.9692 62.6082 63.6336 61.8742 63.4449L52.1066 60.9326C52.0609 60.9208 52.0167 60.906 51.974 60.8885L40.4068 79.2644C40.0146 79.8874 39.1064 79.8874 38.7142 79.2644L27.0549 60.7422L17.5911 63.1087C16.8559 63.2925 16.1913 62.6236 16.38 61.8896L18.8017 52.4696L0.701495 40.3998C0.0985485 39.9978 0.110154 39.1079 0.723382 38.7217L18.9772 27.2257ZM38.8234 25.7257L33.8918 33.5602C33.8121 33.6868 33.705 33.7939 33.5784 33.8736L25.7073 38.8307C25.094 39.2169 25.0824 40.1068 25.6854 40.5089L33.593 45.7819C33.7101 45.86 33.8095 45.962 33.8845 46.0812L38.8234 53.9272C39.2156 54.5502 40.1238 54.5502 40.516 53.9272L45.4502 46.0886C45.5282 45.9646 45.6325 45.8594 45.7556 45.7802L53.9388 40.5183C54.5604 40.1186 54.5487 39.206 53.917 38.8224L45.7702 33.8749C45.6377 33.7944 45.5256 33.6842 45.443 33.5529L40.516 25.7257C40.1238 25.1027 39.2156 25.1027 38.8234 25.7257Z" fill="black"/>
</g>
<defs>
<clipPath id="clip0_167_243">
<rect width="80" height="80" fill="white"/>
</clipPath>
</defs>
</svg>
